<svg fill="none" height="46" viewBox="0 0 323 46" width="323" xmlns="http://www.w3.org/2000/svg"><g clip-rule="evenodd" fill-rule="evenodd"><g fill="#ead03e"><path d="m.8 33v.9h-.8v6.1h1.6v-2.6h.8v2.6h1.6v-6.1h-.8v-.9zm.8 2.6h.8v-.9h-.8z"/><path d="m10.2 35.8h.8v4.2h-1.6v-3.3h-.8v3.3h-1.6v-5h3.2z"/><path d="m16.6 38.3h.8v-1.8h-.8zm-1.6-2.7h.8v-.9h1.6v-1.7h1.6v7h-3.2v-.9h-.8z"/><path d="m26 36.7h-1.6v.8h.8v.8h.8v.8h-.8v.9h-3.2v-1.7h1.6v-.8h-.8v-.8h-.8v-.8h.8v-.9h3.2z"/><path d="m35.6 35.6h.8v-.9h-.8zm1.6-1.7h.8v2.6h-.8v.9h-1.6v2.6h-1.6v-7h3.2z"/><path d="m45 35v1.7h-1.5v3.3h-1.5v-5z"/><path d="m49.6 38.3h.8v-1.7h-.8zm2.4-2.5v3.3h-.8v.9h-2.4v-.8h-.8v-3.3h.8v-.9h2.4v.8z"/><path d="m55.8 35v.9h-.8v3.6h.8v.9h1.6v.9h-1.6v1.7h2.4v-.9h.8v-7.1zm.8 3.6h.8v-1.8h-.8z"/><path d="m66 35v1.7h-1.5v3.3h-1.5v-5z"/><path d="m70.6 38.3h.8v-1.7h-.8zm2.4 1.7h-3.2v-.8h-.8v-3.3h.8v-.9h3.2z"/><path d="m82.1 35.8h.9v4.2h-1.7v-3.3h-.9v3.3h-1.8v-3.3h-.9v3.3h-1.7v-5h6.1z"/><path d="m92.1 35.8h.9v4.2h-1.8v-3.3h-.9v3.3h-1.7v-3.3h-.9v3.3h-1.7v-5h6.1z"/><path d="m96 40h2v-5.3h-2zm0-6.1h2v-.9h-2z"/><path d="m104.2 35.8h.8v4.2h-1.6v-3.3h-.8v3.3h-1.6v-5h3.2z"/><path d="m108.8 35v.9h-.8v3.6h.8v.9h1.6v.9h-1.6v1.7h2.4v-.9h.8v-7.1zm.8 3.6h.8v-1.8h-.8z"/><path d="m124 34.8h-2.4v.9h1.6v.9h.8v2.6h-.8v.8h-3.2v-1.8h2.4v-.9h-1.6v-.9h-.8v-2.6h.8v-.8h3.2z"/><path d="m131 36.7h-1.5v1.7h1.5v1.6h-2.3v-.8h-.7v-3.3h.7v-.9h2.3z"/><path d="m137.2 35.6h.8v4.4h-1.6v-3.5h-.8v3.5h-1.6v-7h1.6v1.8h1.6z"/><path d="m143.6 38.3h.8v-1.7h-.8zm2.4-2.5v3.3h-.8v.9h-2.4v-.8h-.8v-3.3h.8v-.9h2.4v.8z"/><path d="m150.6 38.3h.8v-1.7h-.8zm2.4-2.5v3.3h-.8v.9h-2.4v-.8h-.8v-3.3h.8v-.9h2.4v.8z"/><path d="m156 40h2v-7h-2z"/></g><path d="m1 8h16v-4h-16z" fill="#885484"/><path d="m17 8h4v-4h-4z" fill="#c5593f"/><path d="m17 12h4v-4h-4z" fill="#e5894e"/><path d="m17 16h4v-4h-4z" fill="#5a4971"/><path d="m13 16h4v-4h-4z" fill="#535f95"/><path d="m7 22h4v-9h-4z" fill="#71aabd"/><path d="m7 26h4v-4h-4z" fill="#b05339"/><path d="m4 26h3v-4h-3z" fill="#cb5d40"/><path d="m30 12h8v-4h-8z" fill="#71aabd"/><path d="m46 22h4v-7h-4z" fill="#cb5d40"/><path d="m38 26h8v-4h-8z" fill="#885484"/><path d="m46 26h4v-4h-4z" fill="#802d5d"/><path d="m59 12h8v-4h-8z" fill="#535f95"/><path d="m67 12h4v-4h-4z" fill="#3280a2"/><path d="m67 18h4v-6h-4z" fill="#71aabd"/><path d="m67 26h4v-5h-4z" fill="#71aabd"/><path d="m71 22h7v-4h-7z" fill="#cb5d40"/><path d="m67 22h4v-4h-4z" fill="#b05339"/><path d="m75 7h3v-3h-3z" fill="#71aabd"/><path d="m80 7h3v-3h-3z" fill="#e5894e"/><path d="m90 10h14v-4h-14z" fill="#cb5d40"/><path d="m86 17h10v-4h-10z" fill="#71aabd"/><path d="m100 17h9v-4h-9z" fill="#71aabd"/><path d="m96 22h4v-5h-4z" fill="#885484"/><path d="m96 26h4v-4h-4z" fill="#5a4971"/><path d="m96 17h4v-4h-4z" fill="#62477b"/><path d="m93 26h3v-4h-3z" fill="#e5894e"/><path d="m115 16h4v-5h-4z" fill="#71aabd"/><path d="m122 16h4v-5h-4z" fill="#cb5d40"/><path d="m128 22h4v-6h-4z" fill="#e5894e"/><path d="m128 26h4v-4h-4z" fill="#5a4971"/><path d="m122 26h6v-4h-6z" fill="#535f95"/><path d="m142 10h4v-6h-4z" fill="#71aabd"/><path d="m142 18h4v-4h-4z" fill="#c87a45"/><path d="m139 18h3v-4h-3z" fill="#e5894e"/><path d="m142 14h4v-4h-4z" fill="#b05339"/><path d="m146 14h6v-4h-6z" fill="#cb5d40"/><path d="m152 26h4v-12h-4z" fill="#885484"/><path d="m152 14h4v-4h-4z" fill="#802d5d"/></g><path d="m173.5 0v46" stroke="#d8d8d8"/><g fill="#363636"><path d="m189.214 19.4615-1.077-1.0769c1.539-.7692 3.233-2.3077 4.31-3.8461h-4.156v-1.5385h4.618v-2h1.54v2h2.309v1.3846h-2.309v4c0 1.2308-.462 1.8462-1.694 1.8462-.462 0-1.077 0-1.539-.1539v-1.3846h1.231c.308 0 .462-.1538.462-.4615v-2.1539c-.923 1.2308-2.309 2.4616-3.695 3.3846z"/><path d="m203.378 13.6154-.924 1.2308c-.615-.6154-1.847-1.3847-2.617-1.8462l.924-1.2308c.77.6154 1.847 1.3846 2.617 1.8462zm3.695 0 .924 1.0769c-1.54 2.3077-4.465 4.4615-7.236 5.3846l-.77-1.3846c2.771-.6154 5.542-2.6154 7.082-5.0769z"/><path d="m217.696 13.9231 1.077.7692c-.923 2.7692-2.771 4.6154-5.388 5.6923l-.924-1.3846c2.31-.7692 3.849-2.1538 4.311-3.6923h-6.158v-1.3846zm0-2.4616v1.3847h-6.158v-1.3847z"/><path d="m226.779 20.2308h-1.539v-4.7693c-1.078.6154-2.156 1.2308-3.233 1.6923l-.77-1.3846c2.463-.7692 5.85-3.2307 7.236-4.7692l1.231.9231c-.77.7692-1.693 1.6923-2.771 2.4615v5.8462z"/><path d="m236.324 13.6154-.924 1.2308c-.615-.6154-1.847-1.3847-2.617-1.8462l.924-1.2308c.924.6154 2.001 1.3846 2.617 1.8462zm3.695 0 .924 1.0769c-1.54 2.3077-4.465 4.4615-7.236 5.3846l-.77-1.3846c2.771-.6154 5.697-2.6154 7.082-5.0769z"/><path d="m232.937 26.8462 1.078.6153c-.77 3.5385-2.463 6-5.85 7.3847l-1.078-1.2308c3.079-1.0769 4.465-2.9231 5.08-5.3846h-6.004v-1.3846zm2.463-.7693c0 .6154-.461 1.0769-1.077 1.0769s-1.078-.4615-1.078-1.0769.462-1.0769 1.078-1.0769 1.077.4615 1.077 1.0769zm-1.693 0c0 .3077.308.6154.616.6154s.616-.3077.616-.6154-.308-.6154-.616-.6154-.616.1539-.616.6154z"/><path d="m245.1 26.8462v7.3846h-7.852v-7.3846zm-1.54 5.8461v-4.4615h-4.773v4.4615z"/><path d="m254.799 27.1538 1.077.4616c-.923 3.6923-2.463 5.8461-5.696 7.2308l-1.078-1.2308c3.079-1.0769 4.311-3.0769 4.773-5.2308h-2.925c-.77 1.0769-1.54 2.1539-2.463 2.7692l-1.078-.923c1.539-1.077 2.925-3.2308 3.541-4.7693l1.385.4616c-.154.3077-.308.7692-.615 1.0769h3.079zm.154-1.6923c.461.4616.615.7693 1.077 1.2308l-.616.4615c-.308-.4615-.615-.923-1.077-1.2307zm1.385-.4615c.462.4615.77.7692 1.078 1.2308l-.616.4615c-.308-.4615-.616-.9231-1.078-1.2308z"/><path d="m266.191 28.5385 1.078.7692c-.924 2.7692-2.771 4.6154-5.389 5.6923l-.923-1.3846c2.309-.7692 3.849-2.1539 4.31-3.6923h-6.312v-1.3846zm0-2.4616v1.3846h-6.158v-1.3846z"/><path d="m277.43 33.4615-.77 1.3847c-1.54-.9231-4.465-1.8462-6.62-2.4616l.616-1.3846c2.309.6154 5.08 1.5385 6.774 2.4615zm.154-6.1538-.616 1.3846c-1.694-.7692-4.157-1.3846-6.004-1.6923l.462-1.3846c2.155.3077 4.618 1.0769 6.158 1.6923zm-.77 2.6154-.616 1.3846c-1.385-.6154-3.233-1.2308-5.08-1.5385l.462-1.3846c1.847.4616 3.848 1.0769 5.234 1.5385z"/><path d="m284.82 28.2308-.924 1.2307c-.616-.6153-1.848-1.3846-2.617-1.8461l.923-1.2308c.77.4616 2.002 1.2308 2.618 1.8462zm3.694 0 .924 1.0769c-1.539 2.3077-4.464 4.4615-7.236 5.3846l-.769-1.3846c2.771-.6154 5.696-2.7692 7.081-5.0769z"/><path d="m298.829 27.1538 1.078.4616c-.924 3.6923-2.463 5.8461-5.696 7.2308l-1.078-1.2308c3.079-1.0769 4.311-3.0769 4.773-5.2308h-2.926c-.769 1.0769-1.539 2.1539-2.463 2.7692l-1.077-.923c1.539-1.077 2.925-3.2308 3.54-4.7693l1.386.4616c-.154.3077-.308.7692-.616 1.0769h3.079zm.154-1.6923c.462.4616.616.7693 1.078 1.2308l-.616.4615c-.308-.4615-.616-.923-1.078-1.2307zm1.386-.4615c.462.4615.77.7692 1.078 1.2308l-.616.4615c-.308-.4615-.616-.9231-1.078-1.2308z"/><path d="m304.218 31.9231v-.7693h.308c.154-.1538.307-.3076.461-.4615h-.769c-.462.3077-.924.6154-1.386.9231l-.77-.9231c.308-.1538.77-.4615 1.078-.6154v-.4615h.616c.154-.1539.308-.3077.616-.4616h-2.002v-1.0769h1.54v-.7692h-.924v-1.0769h.924v-1.077h1.231v1.077h.924v.923c.154-.3076.308-.7692.462-1.0769l1.078.3077c-.308.6154-.616 1.2308-.924 1.8462h.616v.7692c.616-1.0769.923-2.3077 1.077-3.6923l1.386.1538c0 .4616-.154.9231-.308 1.3847h2.771v1.2307h-.616c-.154 1.6923-.461 3.0769-1.077 4.1539.462.7692 1.077 1.3846 2.001 1.6923l-.924 1.0769c-.615-.4615-1.231-.9231-1.693-1.6923-.462.6154-1.078 1.2308-1.848 1.6923l-.923-.9231c.923-.6154 1.539-1.2307 2.155-1.8461-.308-.6154-.616-1.3846-.77-2.3077-.154.3077-.308.4615-.462.7692l-.923-.9231c.154-.1538.308-.3077.308-.6154h-1.232c-.154.1539-.308.3077-.462.4616h.308.154.308l.77.4615c-.308.4616-.924 1.0769-1.54 1.5385v.1538c.616 0 1.386-.1538 1.848-.1538v1.0769c-.616.1539-1.232.1539-1.848.3077v1.2308c0 .6154-.154.923-.616 1.0769-.308 0-.923 0-1.385 0l-.308-1.2308h.77c.154 0 .154 0 .154-.1538v-.7693c-.616.1539-1.386.1539-1.848.3077l-.154-1.2307c.308-.1539 1.078-.1539 1.848-.3077zm1.077-3.6923c.154-.3077.462-.6154.616-.7693h-.77v.7693zm4.311 2.6154c.308-.7693.462-1.6924.616-2.7693h-1.078c0 1.2308.154 2 .462 2.7693z"/><path d="m317.458 33.7692v-.7692h-2.771v-1.2308h2.771v-.7692h1.385v.7692h2.925v1.2308h-2.925v.7692h4.157v1.2308h-9.545v-1.2308zm0-7.6923v-.9231h1.385v.9231h4.003v2.1539h-1.386v-.9231h-6.62v.9231h-1.385v-2.1539zm-1.848 3.8462c.308-.3077.462-.7693.616-1.0769h-1.078v-1.077h6.005v1.077h-.77c.924.6153 1.539 1.2307 2.001 1.8461l-1.077.7692c-.154-.1538-.308-.4615-.462-.6153-2.002.1538-4.773.3076-6.466.3076l-.308-1.2307zm4.003 0c-.308-.1539-.616-.4616-.77-.6154l.616-.4615h-1.539c-.154.3076-.462.7692-.77 1.0769z"/><path d="m192.14 30.5385-.308-1.6923-3.079.4615-.154-1.3846 3.079-.4616-.308-1.6923 1.539-.1538.308 1.6923 2.925-.3077.154 1.3846-2.925.3077.308 1.6923 3.387-.4615.154 1.3846-3.541.4615.462 3.077-1.54.3076-.461-3.2307-3.849.4615-.308-1.3846z"/><path d="m201.223 29c.308.6154.77 1.5385.923 2.1538l-1.231.4616c-.154-.6154-.616-1.6923-.924-2.1539zm5.696 0c-.462 2.7692-2.155 5.0769-4.465 6l-.923-1.2308c2.463-.7692 3.695-2.6154 4.002-5.0769zm-3.541-.4615c.308.6153.77 1.5384.924 2.1538l-1.232.4615c-.154-.6153-.616-1.6923-.924-2.1538z"/><path d="m218.62 34.0769-1.386.9231c-.77-.9231-1.694-2-2.617-2.9231-1.078 1.2308-2.464 2.1539-3.849 2.9231l-.924-1.2308c2.925-1.2307 4.927-3.6923 5.543-5.8461h-4.773v-1.3846h5.85l1.078.6153c-.462 1.3847-1.078 2.6154-1.848 3.6924.924 1.0769 2.156 2.1538 2.926 3.2307zm-1.078-8.3077c.462.4616.616.6154.924 1.077l-.616.4615c-.308-.4615-.616-.7692-.924-1.0769zm1.078-.923c.461.3076.615.6153 1.077 1.0769l-.616.4615c-.308-.4615-.615-.7692-.923-1.0769z"/></g></svg>